<?xml version="1.0" encoding="utf-8"?>
<!-- Generator: Adobe Illustrator 16.0.0, SVG Export Plug-In . SVG Version: 6.00 Build 0)  -->
<!DOCTYPE svg PUBLIC "-//W3C//DTD SVG 1.1//EN" "http://www.w3.org/Graphics/SVG/1.1/DTD/svg11.dtd">
<svg version="1.1" id="Layer_1" xmlns="http://www.w3.org/2000/svg" xmlns:xlink="http://www.w3.org/1999/xlink" x="0px" y="0px"
	 width="792px" height="612px" viewBox="0 0 792 612" enable-background="new 0 0 792 612" xml:space="preserve">
<g>
	<path fill="#B1D78A" d="M344.171,606.296c-13.202,1.793-22.329,3.748-30.967,2.771c-36.997-4.4-107.568-20.373-134.297-63.563
		c-26.729-43.19-73.505-79.861-81.492-134.786c-7.823-53.622-17.765-101.701-7.66-142.936c-0.163,12.875,0.489,24.773,1.467,34.226
		c1.63,16.136,8.475,31.619,14.017,76.765c2.771,22.817,12.061,39.605,25.588,57.696c5.542,7.334,11.246,14.505,16.135,22.328
		c0.815,3.912,1.956,7.66,3.585,11.409c6.52,15.32,19.721,40.094,36.508,45.635c3.097,0.979,6.356,1.63,8.801,3.749
		c2.771,2.281,4.074,5.704,6.03,8.638c3.422,5.053,10.105,9.779,16.135,14.343c1.141,1.63,2.282,3.26,3.26,4.89
		C253.064,593.583,307.011,602.384,344.171,606.296 M687.576,206.662c-9.616-76.602-38.627-75.461-57.044-103.168
		C612.115,75.95,525.734,31.456,479.773,13.365C445.873,0,418.166,8.964,388.34,15.157c46.124,5.378,123.378,27.218,143.914,44.005
		c3.26,2.608,7.985,8.312,13.69,15.81c0.163,0.163,0.325,0.489,0.488,0.652c19.396,6.682,34.879,14.668,54.273,35.856
		c4.89,5.216,9.616,10.594,14.669,15.646c3.585,3.585,7.985,6.03,11.571,9.616c9.779,9.942,19.396,19.884,29.174,29.989
		c3.423,3.422,3.26,5.704,3.423,6.845c0,1.141-0.489,3.097-1.956,1.792c-1.467-1.304-4.074-2.119-5.215-0.489
		c-1.304,2.445,1.304,5.868,3.748,9.127c3.097,4.238,4.4,9.616,6.683,14.343c4.727,10.431,9.616,20.862,12.061,32.107
		c2.281,10.594,7.823,20.862,11.572,31.13c7.985,21.839,12.387,44.331,8.801,67.475c-2.282,14.505-4.563,28.848-6.193,43.19
		c2.281-10.269,5.378-22.818,10.268-38.953C712.35,289.294,697.029,283.264,687.576,206.662"/>
	<path fill="#46A8C6" d="M139.954,428.318c-1.956-5.053-4.563-9.779-7.008-14.668c-0.489-0.979-0.978-1.956-1.63-3.097
		c-7.497-14.669-14.342-29.826-18.417-45.636c-4.563-16.95-5.867-35.041-1.792-52.154c3.097-12.712,9.127-24.447,13.69-36.671
		c7.497-20.536,9.942-42.539,16.461-63.4c3.097-10.105,7.334-15.483,12.061-24.447c4.889-8.964,11.572-16.787,18.254-24.773
		c16.461-20.047,35.53-37.649,56.718-52.644c4.889-3.422,9.942-7.66,15.646-9.616c4.727-1.63,8.475-1.304,13.039-4.075
		c9.942-6.03,15.32-17.113,25.425-22.817c13.365-7.498,27.87-21.188,43.354-23.796c6.193-1.141,11.572-0.489,17.765-2.282
		c8.638-2.607,16.95-6.03,25.751-8.475c4.074-1.141,7.823-3.097,12.061-3.097c8.638-0.163,17.602,1.956,26.24,1.141
		c9.453-0.978,18.743-5.215,28.359-6.52c0.978-0.163,2.119-0.163,2.771,0.652c0.652,0.978,0,2.119-0.651,2.934
		c-2.771,3.749-5.379,8.964-2.445,12.387c1.63,2.119,4.727,2.445,7.335,2.445c10.104-0.163,20.535-3.749,30.478-0.652
		c5.378,1.63,11.408,1.63,16.95,2.282c6.193,0.815,12.55,1.467,18.743,2.282c1.141,0.163,2.444,0.326,3.585,0.815
		c1.142,0.652,1.956,1.793,1.793,2.934c-0.163,1.956-2.771,2.934-3.26,4.889c-0.326,1.467,0.652,2.934,1.956,3.586
		c6.846,3.749,16.461,4.889,24.121,7.008c0.326,0,0.489,0.163,0.815,0.326c0.814,0.163,1.304,0.326,1.63,0.326
		c2.281,0.652,4.4,1.467,6.519,2.119c-0.162-0.163-0.325-0.489-0.488-0.652c-5.704-7.498-10.431-13.202-13.69-15.81
		c-22.329-18.417-113.437-43.027-156.464-45.146c-42.864-1.956-88.173,18.58-139.35,37.975
		c-51.176,19.395-76.602,72.365-112.458,107.406C87.8,194.275,87.474,265.662,91.222,302.17c1.63,16.135,8.475,31.618,14.017,76.765
		c2.771,22.817,12.061,39.604,25.588,57.696c5.542,7.334,11.246,14.505,16.135,22.328
		C144.844,448.528,144.029,438.098,139.954,428.318"/>
	<path fill="#0F7BB6" d="M686.109,261.75c-3.749-10.268-9.29-20.536-11.572-31.129c-2.444-11.246-7.171-21.677-12.061-32.108
		c-2.281-4.726-3.423-10.104-6.683-14.342c-2.444-3.26-4.889-6.519-3.748-9.127c1.141-1.63,3.748-0.978,5.216,0.489
		c1.467,1.304,1.955-0.652,1.955-1.792c0-1.141,0-3.423-3.422-6.845c-9.779-9.942-19.396-19.884-29.175-29.989
		c-3.585-3.749-7.985-6.03-11.571-9.616c-5.053-5.053-9.779-10.431-14.669-15.646c-21.188-23.632-37.975-30.967-60.629-38.301
		c-0.326-0.163-0.815-0.163-1.63-0.326c11.246,3.26,9.941,8.475,15.157,17.113c5.867,9.616,18.906,18.091,27.707,24.937
		c5.541,4.4,11.246,8.638,16.135,13.854c7.661,8.149,11.246,18.417,16.462,28.033c1.956,3.749,2.444,8.312,5.378,11.246
		c3.097,3.097,8.476,3.585,10.757,7.334c2.445,3.912-0.163,8.964,0.163,13.528c0.489,9.29,40.094,35.367,13.854,44.331
		c-0.651,0.163-1.304,0.326-1.793,0.978c-0.488,0.652-0.488,1.467-0.325,2.282c0.814,6.682,6.193,11.898,10.431,17.276
		c8.312,10.431,12.224,22.817,13.201,35.856c0.326,3.912-0.326,26.403-4.89,32.597c-0.651,0.978-0.325,1.467,0.652,1.793
		c3.911,0.978,8.475,4.4,8.149,7.497c-0.979,9.29-6.846,17.602-7.823,26.729c-1.63,14.179,8.148,28.195,5.053,42.212
		c-2.608,12.061-14.506,21.514-14.506,33.9c0,2.934,0.652,6.193-0.652,8.801c-1.304,2.608-4.074,3.912-6.519,5.379
		c-13.69,8.312-20.047,24.61-32.271,35.041c-7.009,6.03-15.81,9.779-23.307,15.32c-8.802,6.356-20.373,24.937-31.456,25.589
		c-3.748,0.325-7.497-1.467-11.246-1.956c-5.867-0.652-11.408,1.956-16.624,4.563c-10.757,5.216-21.351,7.497-32.271,11.897
		c-11.897,4.89-23.144,14.343-33.574,21.677c-21.677,15.32-43.354,31.293-68.779,40.094c-3.749,1.304-9.29,1.63-10.594-2.118
		c-1.467-4.401,5.378-7.498,6.03-12.225c-4.075-0.814-7.497,2.445-10.92,4.89c-6.845,4.89-15.646,6.03-24.122,6.52
		c-15.646,0.815-32.433-0.163-47.754-4.4c-9.127-2.607-17.439-5.053-25.262-10.431c-18.743-12.876-40.257-18.417-57.044-34.39
		c-2.119-2.119-4.727-4.074-7.66-6.193c1.141,1.63,2.282,3.26,3.26,4.89c34.878,51.014,97.301,56.392,133.809,59.978
		c16.298,1.467,32.76-2.119,78.069,1.304c45.31,3.423,47.917-12.55,119.792-38.138c27.056-9.616,52.48-22.98,67.964-48.08
		c8.476-13.69,16.95-27.381,25.1-41.397c3.749-6.356,8.149-12.55,11.409-19.069c3.096-6.03,8.801-16.461,11.408-14.505
		c1.304,0.814,0.652,4.237,1.956,5.052c0.651,0.489,1.467-0.325,1.956-0.978c10.757-16.624,11.734-33.411,13.038-53.133
		c1.63-23.795,5.216-46.124,8.964-69.431C698.496,305.918,694.096,283.427,686.109,261.75"/>
	<path fill="#00416A" d="M446.688,318.631c-5.704,3.097-10.268,3.586-18.417,3.912c-7.986,0.326-15.157-0.979-17.113-1.141
		c-1.956-0.163-2.771-2.282-2.934-4.89c-0.326-5.379,2.934-4.238,6.356-4.075s6.52-0.651,11.408-0.488
		c5.053,0.163,11.083,1.467,18.255,0.163c5.215-0.979,6.845-2.935,8.148-3.912c1.305-0.978,1.956-0.489,3.097,2.119
		C456.63,312.927,452.392,315.534,446.688,318.631 M334.719,311.46c-2.119-1.304-3.423-1.63-4.89-2.771
		c-1.467-0.979-1.793-0.815-3.097,0.163c-1.304,1.141-4.89,4.074-13.202,6.356c-8.312,2.118-11.735,2.607-14.342,2.607
		c-1.63,0-3.26-0.489-4.401,1.956c-1.141,2.281-0.652,3.911,0.978,4.563c1.63,0.651,6.682,2.444,13.202,1.792
		c6.356-0.651,11.083-1.955,15.646-4.074c4.726-1.956,8.964-3.748,10.757-5.541C337.163,314.72,336.837,312.927,334.719,311.46
		 M458.26,387.084c-1.956,0.163-2.445,0.326-3.423,1.467c-1.141,1.304-0.815,1.793,0,5.378c0.814,3.586,2.118,8.639,2.444,17.439
		c0.163,8.801-0.651,18.906-2.444,23.47s2.281,4.563,2.934,4.563c0.651,0,3.097,0,3.911,0c1.63-0.163,2.119-1.467,2.771-3.749
		c0.651-2.281,0.978-9.452,1.141-22.165s-3.423-18.254-4.727-21.84C459.727,388.388,459.563,386.921,458.26,387.084
		 M666.389,400.774c-2.608,12.061-14.506,21.514-14.506,33.9c0,2.934,0.652,6.193-0.652,8.801c-1.304,2.608-4.074,3.912-6.519,5.379
		c-13.69,8.312-20.047,24.61-32.271,35.041c-7.009,6.03-15.81,9.779-23.307,15.32c-8.801,6.356-20.373,24.937-31.456,25.589
		c-3.748,0.325-7.497-1.467-11.245-1.956c-5.868-0.652-11.409,1.956-16.625,4.563c-10.757,5.215-21.351,7.497-32.107,11.897
		c-11.897,4.89-23.144,14.343-33.574,21.677c-21.677,15.32-43.354,31.293-68.779,40.094c-3.749,1.304-9.29,1.63-10.594-2.119
		c-1.467-4.4,5.378-7.497,6.03-12.224c-4.075-0.814-7.498,2.445-10.92,4.89c-6.845,4.89-15.646,6.03-24.122,6.52
		c-15.646,0.814-32.434-0.163-47.754-4.4c-9.127-2.608-17.439-5.053-25.262-10.432c-18.743-12.875-40.257-18.417-57.044-34.389
		c-6.845-6.52-18.743-13.202-23.632-20.536c-1.956-2.934-3.26-6.356-6.03-8.638c-2.445-1.956-5.705-2.608-8.801-3.749
		c-16.787-5.541-30.152-30.314-36.508-45.635c-5.704-13.527-5.052-28.359-10.594-42.05c-1.956-5.053-4.563-9.779-7.008-14.668
		c-0.489-0.979-0.978-1.956-1.63-3.097c-7.497-14.669-14.342-29.826-18.417-45.636c-4.563-16.95-5.867-35.041-1.793-52.154
		c3.097-12.712,9.127-24.447,13.691-36.671c7.497-20.536,9.942-42.539,16.461-63.4c3.097-10.105,7.334-15.483,12.061-24.447
		c4.889-8.964,11.572-16.788,18.254-24.773c16.298-20.047,35.367-37.649,56.555-52.644c4.889-3.422,9.942-7.66,15.646-9.616
		c4.727-1.63,8.475-1.304,13.039-4.075c9.942-6.03,15.32-17.113,25.425-22.817c13.365-7.498,27.87-21.188,43.354-23.796
		c6.193-1.141,11.572-0.489,17.765-2.282c8.638-2.607,16.95-6.03,25.751-8.475c4.074-1.141,7.823-3.097,12.061-3.097
		c8.638-0.163,17.602,1.956,26.24,1.141c9.453-0.978,18.743-5.215,28.359-6.52c0.978-0.163,2.119-0.163,2.771,0.652
		c0.652,0.978,0,2.119-0.651,2.934c-2.771,3.749-5.379,8.964-2.445,12.387c1.63,2.119,4.727,2.445,7.335,2.445
		c10.104-0.163,20.535-3.749,30.478-0.652c5.215,1.63,11.408,1.63,16.95,2.282c6.193,0.815,12.55,1.467,18.743,2.282
		c1.141,0.163,2.444,0.326,3.585,0.815c1.142,0.652,1.956,1.793,1.793,2.934c-0.163,1.956-2.771,2.934-3.097,4.889
		c-0.326,1.467,0.652,2.934,1.956,3.586c6.846,3.749,16.461,4.889,24.121,7.008c12.224,3.259,10.594,8.475,15.973,17.439
		c5.867,9.616,18.906,18.091,27.707,24.936c5.541,4.401,11.246,8.638,16.135,13.854c7.66,8.149,11.246,18.417,16.462,28.033
		c1.956,3.749,2.444,8.312,5.378,11.246c3.097,3.097,8.476,3.585,10.757,7.334c2.445,3.912-0.163,8.964,0.163,13.69
		c0.652,9.29,40.094,35.367,13.854,44.332c-0.651,0.163-1.304,0.326-1.793,0.978c-0.488,0.652-0.488,1.467-0.488,2.282
		c0.814,6.682,6.193,11.897,10.431,17.276c8.312,10.431,12.224,22.818,13.201,35.856c0.326,3.912-0.325,26.403-4.89,32.597
		c-0.651,0.978-0.325,1.467,0.652,1.793c3.912,0.978,8.476,4.4,8.149,7.497c-0.979,9.29-6.846,17.602-7.823,26.729
		C659.869,372.741,669.485,386.758,666.389,400.774 M207.755,189.223c1.141-5.541,6.52-8.964,6.03-14.505
		c0-0.326-0.163-0.978-1.467-0.326c-6.356,2.934-12.875,13.527-17.439,18.091c-7.497,7.497-14.832,15.32-21.84,23.307
		c-5.542,6.356-10.92,12.875-14.505,20.536c-9.453,20.047-11.572,42.702-9.779,64.542c0.978,11.897,3.097,23.632,6.03,35.041
		c2.608,9.779,2.445,20.862,5.378,29.989c0.815,2.771,2.771,5.215,5.052,6.682c0.815,0.489,2.771,0.489,2.771-2.771
		c-0.163-22.003,0.163-44.005,1.141-66.008c0.326-5.867,0.815-11.735,1.467-17.602c1.956-15.81,5.705-31.456,11.898-46.125
		c6.03-14.505,25.914-26.566,25.425-42.864C207.755,194.438,207.103,191.667,207.755,189.223 M506.339,282.775
		c-3.422,0.489-13.69,2.119-14.994,2.119s-3.911,0.326-3.748,2.119c0.162,2.119,6.193,3.912,14.831,2.771
		c8.475-1.141,12.387-2.119,12.061-5.052C514.162,281.797,509.925,282.286,506.339,282.775 M495.257,298.584
		c-0.163-0.815-2.282-1.141-3.749-0.978c-1.63,0-11.246-1.63-17.439-7.008c-6.03-5.542-11.734-12.713-14.994-16.298
		c-3.26-3.423-7.171-7.66-16.787-6.682s-18.743,3.912-17.766,8.149c0.489,2.282,5.868,1.63,11.246,0.489
		c5.542-0.978,13.365-2.282,15.483,1.141c2.282,3.585,5.704,10.431,12.224,15.646c6.52,5.215,14.669,9.453,23.796,9.127
		C496.724,302.007,495.42,299.236,495.257,298.584 M298.699,230.784c0.815,2.282,3.586,3.585,10.431,2.934
		c7.66-0.652,33.411-4.401,40.419,0.978c3.912,2.934,4.563,3.585,5.215,11.083c0.489,7.498,1.304,6.845,2.445,7.008
		c0.978,0.163,4.238-1.467,7.66-7.497c3.423-6.193,17.765-12.387,36.997-14.017c19.232-1.63,35.53-1.63,55.088,8.638
		c19.069,9.942,40.583,26.077,50.525,21.351c5.215-2.445,8.475-10.757,3.26-31.456c-5.053-20.536-14.343-33.249-17.766-36.834
		c-3.26-3.586-8.149-7.66-11.409-5.705c-3.259,1.956,0.815,13.039,4.075,18.091c3.26,4.889,3.586,7.986-2.445,5.867
		c-6.03-2.119-11.897-5.215-18.091-11.246c-6.03-6.031-15.483-23.47-20.698-20.699c-5.216,2.771,1.467,14.505-1.305,15.809
		c-2.771,1.304-8.312-5.052-13.364-12.061c-4.89-7.008-8.638-15.158-15.32-17.439c-6.683-2.119-23.795-4.075-49.058,7.008
		c-23.795,10.594-43.354,26.403-55.414,38.301C298.374,223.123,297.884,228.502,298.699,230.784 M288.92,283.753
		c0.652,1.956,2.608,4.727,8.149,2.771c5.705-1.956,16.298-5.215,21.84-6.519c5.542-1.304,13.039-1.467,16.135-0.978
		c2.934,0.326,3.097-2.608,1.467-3.26s-12.875-3.585-17.928-5.215c-5.052-1.63-7.171-0.652-9.127-0.163
		c-1.956,0.489-11.572,3.585-16.135,5.053C288.594,277.071,287.291,279.515,288.92,283.753 M248.664,138.209
		c-0.326-0.326-1.63,0.652-2.445,1.141c-2.445,1.467-5.215,2.608-7.823,3.912c-5.541,2.608-10.268,5.215-11.083,11.735
		c-0.163,0.815-0.163,1.793,0.163,2.608c0.163,0.326,0.163,0.489,0.326,0.814c1.467,1.956,7.171-1.141,8.801-2.119
		c2.445-1.467,3.259-3.422,4.563-5.542c0.978-1.63,2.282-3.422,3.26-5.052c1.304-1.793,2.444-3.585,3.749-5.378
		C248.5,139.513,248.99,138.535,248.664,138.209 M522.638,315.86c-6.52-3.586-9.127-5.378-13.69-6.356
		c-4.238-0.978-5.542-0.651-7.66-0.978c-1.956-0.326-2.445-0.326-2.771,0.163c-0.162,0.488,0.326,1.141,2.282,2.281
		c1.956,1.142,5.704,3.26,7.986,5.379c2.281,2.118,4.563,4.4,3.097,6.682c-1.304,2.282-5.867,1.467-9.127-0.325
		c-3.26-1.793-7.823-5.379-9.616-6.193c-1.793-0.652-3.097-0.815-2.607,0.978c0.488,1.793,1.304,3.912,0,4.89
		c-1.305,1.141-5.379,1.141-9.128-1.956c-3.585-3.097-4.726-5.215-9.452-9.127c-3.26-2.771-6.356-3.911-8.802-5.704
		c-2.444-1.793-4.727-3.912-8.148-4.89c-3.423-0.978-13.202-2.934-27.382-0.652c-14.179,2.445-17.438,5.052-21.839,4.563
		c-2.608-0.326-3.097-1.141-3.912-3.749c-0.814-2.608-1.304-2.934-2.771-3.586c-1.304-0.652-2.934-0.326-5.378-1.467
		c-2.445-1.141-7.986-2.771-14.017-11.572c-4.563-6.682-6.193-10.757-8.312-13.854c-2.282-3.097-3.749-3.912-6.356-3.749
		c-3.749,0.163-5.867,5.378-7.334,13.365c-1.467,7.986-2.119,15.32-5.867,17.602c-3.912,2.282-7.823,1.141-9.942,0.489
		s-4.563-1.792-8.149-1.467c-3.585,0.163-5.867,0.163-12.386,3.749c-6.52,3.586-8.149,5.053-14.017,6.356
		c-5.868,1.304-7.66,1.304-9.29,1.63c-1.63,0.163-2.445-0.163-3.423,3.586c-0.978,3.748-3.097,7.823-5.378,8.148
		c-2.282,0.326-3.749-0.978-4.89-1.63c-1.141-0.814-5.541-4.237-7.986-5.378c-2.445-0.978-7.334-2.282-11.572,1.793
		c-4.238,4.074-10.92,15.32-13.365,31.292c-2.445,15.973-4.074,31.293,0.163,32.76c4.075,1.467,10.757-18.091,17.439-15.32
		c5.868,2.445,3.097,49.873,2.771,60.141c-0.489,10.269-2.445,25.589,1.63,36.183c4.074,10.594,7.823,15.646,24.121,29.011
		s19.069,15.972,22.655,19.558s13.039,9.942,15.483,11.083s7.823,2.119,10.105-3.423c2.282-5.541,3.585-11.408,10.431-16.787
		c7.008-5.378,8.638-10.104,6.845-13.201c-1.792-3.097-4.727-3.26-9.453-2.445c-4.727,0.815-12.876,3.586-25.425,1.63
		c-12.55-1.956-31.456-7.008-33.086-15.81c-1.141-6.193,3.749-12.387,4.89-17.438c0.978-4.727,4.075-14.669-1.141-18.906
		c-3.423-2.771-6.356,1.304-8.149,3.749c-1.793,2.444-6.519,4.889-6.356-1.63c0.163-6.356,0.326-13.202,0.978-19.069
		c0.489-4.074-0.489-12.876-1.141-16.136c-0.652-3.259,0.489-8.964,4.074-11.571c3.749-2.445,11.409-6.193,14.343-7.986
		c2.934-1.793,6.03-3.586,6.193-8.312c0.163-4.726,3.585-13.69,5.867-17.928c2.282-4.074,3.585-7.497,3.749-9.779
		c0.326-2.281,1.63-4.237,5.378-4.889c3.749-0.652,5.215-0.489,4.238,2.607c-0.978,3.097-3.097,7.008-2.934,9.941
		c0.163,3.098,1.792,4.727,4.726,6.193c2.771,1.63,5.705,3.26,12.876,0.815c7.171-2.444,16.95-5.867,23.144-5.379
		c7.171,0.489,12.549,4.238,17.602,5.705c3.749,1.141,4.237,1.304,11.083,3.097c3.423,0.978,5.541,0.163,6.356-0.489
		c0.814-0.652,1.955-2.119,1.304-4.89c-0.652-2.771-3.912-8.801-0.979-10.104s6.03,2.771,8.312,8.312
		c2.282,5.542,6.193,14.017,9.453,17.603s7.986,4.89,13.527,6.846c5.541,1.955,9.127,1.467,11.409,10.919
		c2.281,9.453,2.607,12.713,2.771,17.113c0.163,9.453-1.63,10.92-1.63,17.603c0,7.823,0.814,10.268-2.119,13.69
		c-0.978,1.141-2.118,2.119-3.26,1.141c-1.141-0.978-0.162-1.955,0.326-3.422c0.815-2.119,0.326-5.216,0.163-9.128
		c-0.163-2.771-0.163-2.934-0.326-3.585c-0.163-1.63-0.978-2.445-2.281-2.282c-2.934,0.326-4.727,2.608-9.127,2.934
		c-4.4,0.326-14.343,0.489-20.536,0.979c-6.03,0.488-19.069,1.304-29.174,1.63c-9.942,0.325-17.276,0.325-27.381-0.652
		c-10.105-1.141-12.061-1.63-13.854-1.63c-1.956,0-10.92,0.978-12.55,7.171c-0.815,3.26-0.489,4.563,1.793,5.053
		c2.281,0.489,12.224,1.141,16.95,1.793c4.726,0.652,15.32,2.119,20.536,2.282c5.215,0,11.897-0.489,15.809-0.489
		c3.749,0,12.713,0.651,13.039,13.201c0,4.238,0.326,7.986,3.26,10.105c2.934,2.118,14.179,7.497,24.284,11.897
		c10.104,4.4,19.558,5.053,24.773,2.934c5.215-2.118,7.008-5.378,5.378-10.268c-1.793-4.89-1.955-8.476,0.163-10.105
		c2.119-1.63,4.4-3.422,14.18-2.934c5.378,0.326,12.55,2.934,15.81-1.793c4.4-6.355,4.89-7.497,13.038-13.038
		c8.149-5.542,12.224-9.29,11.897-23.144c-0.325-14.18-1.629-38.301,0.326-53.458c1.956-14.506,11.083-21.677,16.299-31.782
		C527.201,323.847,529.157,319.446,522.638,315.86 M350.528,412.835c24.937,3.912,56.881,5.379,63.237,5.053
		c6.356-0.163,13.202-2.771,17.766-4.563c4.563-1.956,6.03-2.934,6.845-4.727c0.815-1.793-0.325-8.312-0.978-10.92
		c-0.814-2.607-4.074-5.379-6.03-7.334c-2.119-1.956-5.867-4.89-6.52-5.216c-2.281-1.63-5.215-1.956-20.535-0.651
		c-15.321,1.304-21.188,3.748-29.174,7.008s-9.616,7.009-13.528,10.105c-4.074,3.096-9.616,4.889-12.061,8.148
		C347.431,412.184,349.224,412.672,350.528,412.835 M315.486,388.877c-1.467-2.608-3.911-0.489-5.541,0.488
		c-1.63,0.979-6.52,4.563-10.105,7.172c-3.423,2.607-4.727,6.03-5.705,8.964s-0.978,7.171,1.304,8.312
		c1.467,0.814,3.749,0.162,5.379-0.489c1.956-0.815,3.096-1.304,4.726-2.445c2.608-1.792,3.749-2.771,5.705-4.563
		c1.956-1.792,3.097-3.585,5.215-7.823C318.42,394.418,316.953,391.484,315.486,388.877 M599.892,219.212
		c2.118,3.911,3.911,7.986,5.704,12.061c8.964,21.351,13.69,44.494,13.039,67.638c-0.163,4.238,0.325,9.453,4.4,10.757
		c4.4,1.467,3.911-44.82,3.26-48.731c-1.305-6.52-2.445-12.876-3.26-19.395c-0.979-7.498-5.379-12.876-8.149-19.558
		c-2.607-6.193-5.378-12.224-9.29-17.765c-2.771-4.075-6.193-8.149-6.193-12.875c0-1.793,0.489-3.749,0.489-5.542
		c0-10.594-15.32-14.832-18.58-24.447c-1.793-5.542-2.119-9.779-6.193-14.505c-5.704-6.846-13.69-13.528-20.862-18.743
		c-7.66-5.705-20.535-6.356-29.662-8.149c-2.934-0.489-6.356-0.815-8.476,1.304c3.26,4.563,8.476,7.334,13.202,10.268
		c10.104,6.356,19.068,14.343,26.402,23.633c7.498,9.453,12.225,20.699,20.21,29.663
		C585.06,195.579,593.372,206.825,599.892,219.212 M626.132,396.7c-1.793,0.978-2.771,3.911-4.075,5.541
		c-1.955,2.607-3.911,5.216-5.541,7.986c-1.793,2.934-4.4,5.215-6.193,8.149c-0.489,0.814-0.978,1.63-1.304,2.444
		c-0.979,2.444-1.63,4.89-1.304,7.497c0.163,2.119,0.978,4.074,1.141,6.03c0.652,4.563-1.793,7.497-3.423,11.572
		c-2.771,6.52-6.356,12.55-9.941,18.743c0.978,0.488,1.955-0.326,2.607-1.142c6.193-7.334,12.55-14.668,17.928-22.654
		c3.097-4.563,5.542-9.942,7.497-15.157c3.097-8.312,0.979-17.766,4.401-25.589C628.576,397.841,628.739,395.233,626.132,396.7"/>
	<path fill="#7FA9C8" d="M170.432,286.035c-0.815,5.867-1.304,11.735-1.467,17.602c-0.978,22.166-1.304,44.006-1.141,66.008
		c0,3.26-1.956,3.26-2.771,2.771c-2.445-1.467-4.238-3.911-5.053-6.682c-2.934-9.127-2.771-20.21-5.378-29.989
		c-2.934-11.408-5.215-23.144-6.03-35.041c-1.793-21.84,0.326-44.494,9.779-64.541c3.586-7.66,8.964-14.18,14.505-20.536
		c7.008-7.986,14.343-15.809,21.84-23.307c4.727-4.563,11.083-15.32,17.439-18.091c1.304-0.652,1.467,0,1.63,0.326
		c0.489,5.704-4.889,8.964-6.03,14.505c-0.489,2.607,0,5.215,0,7.823c0.489,16.298-19.395,28.359-25.425,42.865
		C176.136,254.579,172.551,270.225,170.432,286.035 M227.802,158.256c1.467,1.956,7.171-1.304,8.801-2.119
		c2.445-1.467,3.26-3.422,4.563-5.541c0.978-1.793,2.282-3.423,3.26-5.053c1.304-1.792,2.444-3.585,3.749-5.378
		c0.326-0.489,0.815-1.467,0.489-1.793c-0.326-0.326-1.63,0.652-2.445,1.141c-2.444,1.467-5.215,2.608-7.823,3.912
		c-5.541,2.607-10.268,5.215-11.083,11.735c-0.163,0.815-0.163,1.792,0.163,2.607C227.476,157.767,227.639,158.093,227.802,158.256
		 M618.635,299.073c-0.163,4.237,0.325,9.453,4.4,10.757c4.4,1.467,3.911-44.82,3.26-48.732c-1.305-6.519-2.445-12.875-3.26-19.395
		c-0.979-7.497-5.379-12.875-8.149-19.558c-2.607-6.193-5.378-12.224-9.29-17.765c-2.771-4.075-6.193-8.149-6.193-12.875
		c0-1.793,0.489-3.749,0.489-5.542c0-10.594-15.32-14.832-18.58-24.448c-1.793-5.541-2.119-9.779-6.193-14.505
		c-5.704-6.845-13.69-13.527-20.862-18.743c-7.66-5.705-20.535-6.52-29.662-8.149c-2.934-0.489-6.356-0.815-8.476,1.304
		c3.26,4.564,8.476,7.334,13.202,10.268c10.104,6.356,19.068,14.343,26.402,23.633c7.498,9.453,12.225,20.699,20.21,29.663
		c9.29,10.594,17.439,21.84,24.122,34.39c2.118,3.911,3.911,7.986,5.704,12.061C614.723,252.786,619.286,275.93,618.635,299.073
		 M609.019,420.658c-0.979,2.445-1.63,4.89-1.304,7.497c0.163,1.956,0.978,3.912,1.141,6.03c0.652,4.563-1.793,7.498-3.423,11.572
		c-2.771,6.52-6.356,12.55-9.941,18.743c0.978,0.488,1.955-0.326,2.607-1.142c6.193-7.334,12.55-14.668,17.928-22.654
		c3.097-4.727,5.542-9.941,7.497-15.157c3.097-8.312,0.979-17.765,4.401-25.588c0.814-1.956,0.978-4.727-1.63-3.26
		c-1.793,0.978-2.771,3.911-4.075,5.541c-1.956,2.607-3.911,5.216-5.541,7.986c-1.793,2.934-4.4,5.216-6.193,8.149
		C609.833,419.028,609.345,419.844,609.019,420.658"/>
	<path fill="#FFFFFF" d="M456.955,240.073c-19.558-10.268-35.855-10.268-55.088-8.638c-19.232,1.63-33.574,7.823-36.997,14.017
		c-3.422,6.193-6.682,7.66-7.66,7.497c-1.141-0.163-1.792,0.489-2.445-7.008c-0.652-7.497-1.304-8.149-5.215-11.083
		c-7.008-5.378-32.759-1.63-40.419-0.978c-6.845,0.652-9.616-0.652-10.431-2.934s-0.489-7.66,11.572-19.558
		c12.061-11.898,31.619-27.707,55.414-38.301c25.263-11.246,42.375-9.29,49.058-7.008c6.683,2.119,10.268,10.431,15.32,17.439
		c4.89,7.008,10.431,13.364,13.364,12.061c2.771-1.304-3.911-13.039,1.304-15.809c5.216-2.771,14.669,14.668,20.699,20.699
		s12.061,9.127,18.091,11.246c6.03,2.119,5.705-0.978,2.445-5.867s-7.335-16.135-4.075-18.091c3.26-1.956,7.986,2.119,11.409,5.705
		c3.26,3.585,12.55,16.298,17.765,36.834c5.053,20.536,1.956,29.011-3.26,31.456C497.538,266.151,476.024,250.016,456.955,240.073
		 M297.069,286.687c5.705-1.956,16.298-5.215,21.84-6.52c5.542-1.304,13.039-1.467,16.135-0.978c2.934,0.326,3.097-2.608,1.467-3.26
		s-12.875-3.585-17.928-5.215c-5.052-1.63-7.171-0.652-9.127-0.163c-1.956,0.489-11.572,3.585-16.135,5.052
		c-4.727,1.63-6.03,3.912-4.4,8.149C289.572,285.708,291.365,288.479,297.069,286.687 M424.685,275.767
		c0.489,2.282,5.868,1.63,11.246,0.489c5.541-0.978,13.364-2.282,15.483,1.141c2.119,3.585,5.704,10.431,12.224,15.646
		s14.669,9.453,23.796,9.127c9.29-0.326,7.985-2.934,7.823-3.749c-0.163-0.815-2.119-1.141-3.749-0.978
		c-1.63,0-11.246-1.63-17.439-7.171c-6.03-5.541-11.734-12.712-14.994-16.298c-3.26-3.423-7.171-7.661-16.787-6.683
		C432.834,268.433,423.707,271.366,424.685,275.767 M487.597,287.013c0,2.119,6.193,3.912,14.831,2.771
		c8.475-1.141,12.387-2.119,12.061-5.052c-0.326-2.934-4.563-2.608-8.149-1.956c-3.422,0.489-13.69,2.119-14.994,2.119
		S487.597,285.22,487.597,287.013 M300.818,413.324c1.956-0.815,3.097-1.304,4.727-2.445c2.608-1.792,3.749-2.771,5.705-4.563
		c1.956-1.792,3.097-3.585,5.215-7.823c2.119-4.237,0.652-7.171-0.815-9.778s-3.912-0.489-5.542,0.489
		c-1.629,0.978-6.519,4.563-10.105,7.171c-3.422,2.607-4.726,6.03-5.704,8.964s-0.978,7.171,1.304,8.312
		C297.069,414.628,299.188,413.976,300.818,413.324 M413.765,418.051c6.356-0.326,13.202-2.771,17.766-4.563
		c4.563-1.956,6.03-2.934,6.845-4.727c0.815-1.793-0.325-8.312-0.978-10.92c-0.814-2.607-4.074-5.379-6.03-7.334
		c-2.119-1.956-5.867-4.89-6.52-5.216c-2.281-1.63-5.215-1.956-20.535-0.652c-15.321,1.305-21.188,3.749-29.174,7.009
		s-9.616,7.008-13.528,10.104c-4.074,3.097-9.616,4.89-12.061,8.149c-1.956,2.607-0.163,3.097,1.141,3.26
		C375.627,416.91,407.409,418.214,413.765,418.051 M365.033,266.803c-3.749,0.163-5.867,5.378-7.334,13.364
		c-1.467,7.986-2.119,15.321-5.868,17.603c-3.912,2.282-7.823,1.141-9.942,0.489s-4.563-1.793-8.149-1.467
		c-3.586,0.163-5.868,0.163-12.387,3.749c-6.52,3.585-8.149,5.053-14.017,6.356c-5.868,1.304-7.66,1.467-9.29,1.63
		s-2.445-0.163-3.423,3.586c-0.978,3.748-3.097,7.822-5.378,8.148s-3.749-0.978-4.889-1.63c-1.141-0.814-5.542-4.237-7.986-5.378
		c-2.445-0.979-7.334-2.282-11.572,1.793c-4.237,4.074-10.92,15.32-13.202,31.292c-2.445,15.973-4.075,31.293,0.163,32.76
		c4.075,1.467,10.757-18.091,17.439-15.32c5.868,2.444,3.097,49.873,2.771,60.141c-0.489,10.268-2.445,25.588,1.63,36.183
		c4.074,10.594,7.823,15.646,24.121,29.011c16.298,13.364,19.069,15.972,22.655,19.558s13.039,9.942,15.483,11.083
		s7.823,2.118,10.105-3.423s3.585-11.409,10.431-16.787c7.008-5.379,8.638-10.104,6.845-13.202
		c-1.792-3.096-4.727-3.259-9.453-2.444c-4.727,0.815-12.876,3.586-25.425,1.63c-12.55-1.956-31.456-7.008-33.086-15.81
		c-1.141-6.193,3.749-12.387,4.89-17.438c0.978-4.727,4.075-14.669-1.141-18.906c-3.423-2.771-6.356,1.304-8.149,3.748
		c-1.793,2.445-6.519,4.89-6.356-1.63c0.163-6.355,0.326-13.201,0.978-19.068c0.489-4.075-0.489-12.876-1.141-16.136
		c-0.652-3.26,0.489-8.964,4.074-11.408c3.749-2.445,11.409-6.193,14.343-7.986c2.934-1.793,6.03-3.586,6.193-8.312
		c0.163-4.727,3.585-13.69,5.867-17.928c2.282-4.074,3.585-7.497,3.749-9.779c0.326-2.281,1.63-4.237,5.378-4.89
		c3.749-0.651,5.215-0.488,4.238,2.608c-0.978,3.097-3.097,7.008-2.934,9.941c0.163,3.097,1.792,4.727,4.727,6.193
		c2.771,1.63,5.704,3.26,12.875,0.815c7.171-2.445,16.95-5.867,23.144-5.379c7.171,0.489,12.549,4.237,17.602,5.704
		c3.749,1.142,4.237,1.305,11.083,3.098c3.423,0.978,5.541,0.162,6.356-0.489c0.814-0.652,1.955-2.119,1.304-4.89
		c-0.652-2.771-3.912-8.801-0.979-10.104c2.935-1.305,6.03,2.771,8.312,8.148c2.282,5.542,6.193,14.017,9.453,17.603
		s7.986,4.89,13.527,6.845c5.542,1.956,9.127,1.467,11.409,10.92c2.281,9.453,2.607,12.713,2.771,17.113
		c0.163,9.453-1.63,10.92-1.63,17.603c0,7.823,0.814,10.268-2.119,13.69c-0.978,1.141-2.118,2.118-3.26,1.141
		c-1.141-0.978-0.162-1.956,0.326-3.423c0.815-2.118,0.326-5.215,0.163-9.127c-0.163-2.771-0.163-2.934-0.326-3.585
		c-0.163-1.63-0.978-2.445-2.281-2.282c-2.934,0.326-4.727,2.607-9.127,2.934s-14.343,0.489-20.536,0.979
		c-6.03,0.488-19.069,1.304-29.174,1.629c-9.942,0.326-17.276,0.326-27.381-0.651c-10.105-1.141-12.061-1.63-13.854-1.63
		c-1.956,0-10.92,0.978-12.55,7.171c-0.815,3.26-0.489,4.563,1.793,5.053c2.281,0.489,12.224,1.141,16.95,1.793
		c4.726,0.651,15.32,2.118,20.536,2.281c5.215,0,11.897-0.325,15.809-0.488c3.749,0,12.713,0.651,13.039,13.201
		c0,4.237,0.326,7.986,3.26,10.105c2.934,2.118,14.179,7.497,24.284,11.897c10.104,4.4,19.558,5.053,24.773,2.934
		c5.215-2.119,7.008-5.379,5.378-10.268c-1.793-4.89-1.955-8.476,0.163-10.105c2.119-1.63,4.4-3.423,14.18-2.934
		c5.379,0.326,12.55,2.934,15.81-1.793c4.4-6.356,4.89-7.497,13.038-13.038c8.149-5.542,12.224-9.29,11.898-23.144
		c-0.326-14.18-1.63-38.301,0.325-53.459c1.956-14.505,11.083-21.677,16.299-31.781c4.563-8.801,6.519-13.364,0-16.787
		c-6.52-3.586-9.127-5.379-13.69-6.356c-4.238-0.978-5.542-0.652-7.66-0.978c-1.956-0.326-2.445-0.326-2.771,0.163
		c-0.163,0.488,0.326,1.141,2.282,2.281s5.704,3.26,7.986,5.379c2.281,2.118,4.563,4.4,3.097,6.682
		c-1.304,2.282-5.868,1.467-9.127-0.326c-3.26-1.792-7.823-5.378-9.616-6.193c-1.793-0.651-3.097-0.814-2.608,0.979
		c0.489,1.793,1.305,3.911,0,4.89c-1.304,1.141-5.378,1.141-9.127-1.956c-3.585-3.097-4.727-5.216-9.452-9.127
		c-3.26-2.771-6.356-3.912-8.802-5.705c-2.444-1.793-4.727-3.912-8.148-4.889c-3.423-0.978-13.202-2.934-27.382-0.652
		c-14.179,2.445-17.438,5.053-21.839,4.563c-2.608-0.326-3.098-1.141-3.912-3.749c-0.814-2.607-1.304-2.934-2.771-3.585
		c-1.304-0.652-2.934-0.326-5.378-1.467c-2.445-1.141-7.986-2.771-14.017-11.572c-4.563-6.682-6.193-10.757-8.312-13.854
		S367.804,266.64,365.033,266.803 M457.771,439.728c-0.652,0-4.89,0-2.934-4.563c1.793-4.563,2.771-14.669,2.444-23.47
		c-0.163-8.801-1.63-13.854-2.444-17.439c-0.815-3.585-1.141-4.237,0-5.378c0.978-1.141,1.467-1.304,3.423-1.63
		c1.141-0.163,1.304,1.304,2.607,4.89c1.304,3.585,4.89,9.127,4.727,21.839c-0.163,12.713-0.489,19.885-1.141,22.166
		c-0.652,2.282-1.142,3.749-2.771,3.749C461.03,439.728,458.585,439.728,457.771,439.728 M299.188,317.979
		c2.607,0,6.03-0.489,14.342-2.608c8.312-2.118,11.898-5.215,13.202-6.355c1.304-1.142,1.63-1.305,3.097-0.163
		c1.467,0.978,2.771,1.304,4.89,2.607c2.119,1.304,2.444,3.26,0.652,5.216c-1.793,1.792-6.193,3.585-10.757,5.541
		c-4.726,1.956-9.29,3.423-15.646,4.074c-6.356,0.652-11.572-1.141-13.202-1.793c-1.63-0.651-2.119-2.444-0.978-4.563
		C296.092,317.49,297.722,317.979,299.188,317.979 M414.58,312.438c3.423,0.163,6.52-0.651,11.409-0.488
		c5.052,0.163,11.082,1.467,18.254,0.163c5.215-0.979,6.845-2.935,8.148-3.912c1.305-0.978,1.956-0.489,3.097,2.119
		c1.142,2.444-3.097,5.215-8.801,8.312s-10.268,3.586-18.417,3.912c-7.986,0.326-15.157-0.979-17.113-1.141
		c-1.956-0.163-2.771-2.282-2.934-4.89C407.897,311.297,411.157,312.438,414.58,312.438"/>
</g>
</svg>
